<?xml version="1.0" encoding="UTF-8"?>
<svg xmlns="http://www.w3.org/2000/svg" xmlns:xlink="http://www.w3.org/1999/xlink" width="2510" height="3000" viewBox="0 0 2510 3000">
<path fill-rule="nonzero" fill="rgb(0%, 0%, 0%)" fill-opacity="1" d="M 951.585938 2976.046875 C 509.679688 2896.074219 178.667969 2643.199219 26.765625 2269.535156 C 6.898438 2220.664062 -4.414062 2175.726562 1.628906 2169.679688 C 17.917969 2153.367188 464.550781 1958.621094 485.667969 1958.621094 C 495.636719 1958.621094 549.390625 2049.929688 605.125 2161.535156 C 759.359375 2470.382812 916.542969 2693.914062 1088.300781 2848.667969 C 1129.261719 2885.574219 1175.148438 2934.722656 1190.269531 2957.886719 L 1217.761719 3000 L 1143.261719 2998.625 C 1102.28125 2997.871094 1016.03125 2987.710938 951.585938 2976.046875 Z M 1295.871094 2975.769531 C 1285.859375 2949.683594 1308.300781 2925.613281 1533.839844 2720.511719 C 1577.828125 2680.5 1616.398438 2647.765625 1619.550781 2647.765625 C 1637.71875 2647.765625 1674.710938 2810.253906 1670.730469 2872.605469 C 1666.03125 2946.265625 1665.890625 2946.429688 1597.101562 2963.296875 C 1559.199219 2972.589844 1478.171875 2985.074219 1417.039062 2991.035156 C 1320.269531 3000.476562 1304.589844 2998.5 1295.871094 2975.769531 Z M 1767.511719 2847.980469 C 1766.269531 2793.085938 1750.160156 2714.128906 1727.539062 2652.117188 L 1689.640625 2548.222656 L 1780.238281 2416.90625 C 1865.449219 2293.410156 2025.910156 1994.539062 2025.910156 1959.328125 C 2025.910156 1950.519531 2034.609375 1943.300781 2045.238281 1943.300781 C 2073.871094 1943.300781 2495 2151.480469 2507.589844 2171.855469 C 2522.460938 2195.90625 2437.71875 2372.074219 2356.628906 2485.71875 C 2220.261719 2676.820312 2067.109375 2796.046875 1779.058594 2935.371094 C 1773.851562 2937.890625 1768.660156 2898.5625 1767.511719 2847.980469 Z M 1170.050781 2785.105469 C 1093.210938 2729.449219 932.769531 2529.46875 813.945312 2341.257812 C 732.886719 2212.875 616.976562 1964.980469 616.976562 1920.019531 C 616.976562 1908.890625 636.90625 1895.410156 661.269531 1890.070312 C 745.648438 1871.53125 840.316406 1797.679688 877.097656 1721.710938 C 931.125 1610.109375 914.609375 1523.449219 809.914062 1369.21875 C 694.292969 1198.890625 674.121094 1132.769531 665.035156 894.261719 C 650 499.660156 652.53125 457.820312 696.5 373.570312 C 744.28125 282.011719 788.953125 237.851562 866.589844 205.410156 C 898.359375 192.140625 930.269531 165.960938 937.5 147.25 C 979.589844 38.308594 1170.378906 -38.308594 1253.898438 20.191406 C 1274.210938 34.421875 1292.730469 37.160156 1307.078125 28.089844 C 1378.519531 -17.121094 1510.21875 35.019531 1577.78125 135.269531 C 1597.03125 163.839844 1639.339844 199.109375 1671.808594 213.640625 C 1742.210938 245.160156 1797.699219 313.980469 1840.519531 422.890625 C 1876.128906 513.441406 1878.210938 544.429688 1866.328125 807.128906 C 1853.710938 1086.308594 1813.609375 1216.46875 1688.691406 1383.789062 C 1600.121094 1502.441406 1598.589844 1672.71875 1685.28125 1764.070312 C 1729.488281 1810.660156 1855.96875 1882.039062 1894.320312 1882.039062 C 1940.289062 1882.039062 1934.859375 1917.160156 1867.601562 2054.890625 C 1784.460938 2225.132812 1699.011719 2358.855469 1581.730469 2502.253906 C 1489.859375 2614.597656 1269.410156 2831.539062 1247.121094 2831.539062 C 1239.980469 2831.539062 1205.300781 2810.644531 1170.050781 2785.105469 Z M 1170.050781 2785.105469 "/>
</svg>
